<svg xmlns="http://www.w3.org/2000/svg" viewBox="0 0 128 128" height="128" width="128"><defs><clipPath clipPathUnits="userSpaceOnUse" id="0014-manage-my-team-clipPath"><path d="M35.528 69.823c10.418 0 18.273-9.444 18.273-21.968 0-10.024-8.368-18.492-18.273-18.492-9.904 0-18.271 8.468-18.271 18.492 0 12.524 7.855 21.968 18.271 21.968zm-.002 4.351C-.411 74.174 2.003 95.656 1.528 101h68c-.469-5.283 1.947-26.826-34.002-26.826"></path></clipPath></defs><path d="M88.499 63.559C100.757 63.559 110 52.447 110 37.71c0-11.795-9.846-21.759-21.501-21.759C76.845 15.951 67 25.915 67 37.71c0 14.737 9.242 25.849 21.499 25.849zm-.002 5.981C47.804 69.54 50.538 94.87 50 101h77c-.548-6.238 2.084-31.46-38.503-31.46" fill="#acd2ff"></path><path d="M32 97h-7v-7h-7v7h-7v7h7v7h7v-7h7v-7" fill="#f73e29"></path><path clip-path="url(#0014-manage-my-team-clipPath)" d="M120 124l4-4m0-4l-8 8m-4 0l12-12m0-4l-16 16m-4 0l20-20m0-4l-24 24m-4 0l28-28m0-4l-32 32m-4 0l36-36m0-4l-40 40m-4 0l44-44m0-4l-48 48m-4 0l52-52m0-4l-56 56m-4 0l60-60m0-4l-64 64m-4 0l68-68m0-4l-72 72m-4 0l76-76m0-4l-80 80m-4 0l84-84m0-4l-88 88m-4 0l92-92m0-4l-96 96m-4 0L124 24m0-4L20 124m-4 0L124 16m0-4L12 124m-4 0L124 8m0-4L4 124m0-4L120 4m-4 0L4 116m0-4L112 4m-4 0L4 108m0-4L104 4m-4 0L4 100m0-4L96 4m-4 0L4 92m0-4L88 4m-4 0L4 84m0-4L80 4m-4 0L4 76m0-4L72 4m-4 0L4 68m0-4L64 4m-4 0L4 60m0-4L56 4m-4 0L4 52m0-4L48 4m-4 0L4 44m0-4L40 4m-4 0L4 36m0-4L32 4m-4 0L4 28m0-4L24 4m-4 0L4 20m0-4L16 4m-4 0l-8 8m0-4l4-4" fill="none" stroke="#343741" stroke-linecap="square" stroke-width=".2"></path><path d="M67 14h43v22H67z" fill="#f73e29"></path><path d="M109.924 36c-.896-11.032-10.339-20.049-21.425-20.049-11.085 0-20.527 9.017-21.423 20.049h42.848" fill="#a63329"></path></svg>